<svg width="18" height="22" viewBox="0 0 18 22" fill="none" xmlns="http://www.w3.org/2000/svg">
<path d="M14.8889 11.5796C14.8998 10.745 15.1228 9.92659 15.5374 9.20063C15.952 8.47468 16.5446 7.86474 17.2601 7.42757C16.8056 6.78241 16.2059 6.25146 15.5088 5.87691C14.8117 5.50236 14.0363 5.29452 13.2442 5.26989C11.5546 5.09363 9.91655 6.27472 9.05554 6.27472C8.17787 6.27472 6.85221 5.28739 5.42469 5.31658C4.50134 5.34622 3.60145 5.61308 2.81272 6.09114C2.02399 6.56919 1.37331 7.24215 0.924079 8.04445C-1.0219 11.3929 0.429626 16.3139 2.29371 19.0205C3.22635 20.3459 4.31633 21.8263 5.74256 21.7738C7.13821 21.7163 7.65946 20.8893 9.34412 20.8893C11.0132 20.8893 11.5022 21.7738 12.9574 21.7404C14.455 21.7163 15.3985 20.4092 16.2984 19.0713C16.9685 18.1269 17.4842 17.0832 17.8263 15.9788C16.9562 15.6131 16.2137 15.0009 15.6914 14.2186C15.169 13.4363 14.89 12.5185 14.8889 11.5796V11.5796Z" fill="#050A3C"/>
<path d="M12.1407 3.49062C12.9572 2.51641 13.3595 1.26423 13.2621 0C12.0146 0.13022 10.8622 0.722779 10.0347 1.65961C9.63003 2.11728 9.32013 2.64971 9.12267 3.22648C8.92521 3.80325 8.84406 4.41304 8.88387 5.021C9.50785 5.02738 10.1252 4.89297 10.6893 4.62788C11.2534 4.3628 11.7497 3.97395 12.1407 3.49062Z" fill="#050A3C"/>
</svg>
