<svg width="24" height="26" viewBox="0 0 24 26" fill="none" xmlns="http://www.w3.org/2000/svg">
<path d="M0.537737 25.123L0.463348 25.0523C0.172003 24.7459 0 24.2702 0 23.6542V23.7992V1.79319C0 1.7912 0 1.78971 0 1.78812C0 1.79001 0 1.7916 0 1.79359V1.93896C0 1.2719 0.200537 0.769413 0.536535 0.46812L12.941 12.796L0.537737 25.123ZM0 1.78693C0 1.7321 0.00150171 1.67887 0.00430503 1.62643C0.00150171 1.67847 0 1.7321 0 1.78693ZM0.00430503 1.62404C0.00430503 1.62334 0.0043041 1.62255 0.00460445 1.62175C0.0043041 1.62255 0.00430503 1.62334 0.00430503 1.62404ZM0.00460445 1.61707C0.00460445 1.61668 0.00460445 1.61628 0.00460445 1.61588C0.00460445 1.61628 0.00460445 1.61668 0.00460445 1.61707Z" fill="url(#paint0_linear_10101_23597)"/>
<path d="M17.0756 17.0527L17.1699 16.9995L22.0686 14.2332C22.5357 13.9694 22.8469 13.6495 23.0022 13.3109C22.8473 13.6495 22.536 13.9698 22.0686 14.2336L17.1699 16.9999L17.0756 17.0527V17.0527ZM17.0768 16.907L12.9414 12.7963L17.0764 8.68637L22.0686 11.5051C22.7026 11.8631 23.0585 12.3245 23.118 12.7959C23.118 12.7963 23.118 12.7971 23.118 12.7978C23.0585 13.2682 22.7026 13.73 22.0686 14.0879L17.0768 16.907" fill="url(#paint1_linear_10101_23597)"/>
<path d="M1.42205 25.5928C1.07554 25.5928 0.773186 25.4808 0.537406 25.2694L0.537808 25.269C0.773587 25.4804 1.07635 25.5928 1.42286 25.5928C1.45289 25.5928 1.48343 25.592 1.51436 25.5905C1.48303 25.592 1.45209 25.5928 1.42205 25.5928V25.5928ZM1.42246 25.447C1.07595 25.4474 0.773587 25.3351 0.537808 25.1236V25.1233L12.9411 12.7963L17.0765 16.9069L2.54408 25.1132C2.14201 25.3397 1.76106 25.447 1.42246 25.447V25.447ZM0.534303 25.2667C0.512378 25.2469 0.490852 25.2259 0.469727 25.2041L0.534303 25.2667Z" fill="url(#paint2_linear_10101_23597)"/>
<path d="M12.9406 12.7969L0.536133 0.469016C0.771912 0.257971 1.07387 0.146031 1.41998 0.146031C1.75948 0.146031 2.14073 0.253693 2.54361 0.480658L17.0756 8.68693L12.9406 12.7969V12.7969ZM17.1691 8.59409L2.54361 0.335383C2.14073 0.108318 1.75948 0.000657892 1.41998 0.000657892C1.41838 0.000657892 1.41728 0.000657892 1.41567 0.000657892C1.41768 0.000657892 1.41918 0.000657892 1.42158 0.000657892C1.76028 0.000657892 2.14113 0.10792 2.54361 0.334985L17.1691 8.59409V8.59409Z" fill="url(#paint3_linear_10101_23597)"/>
<path d="M1.51481 25.5898C1.82959 25.5719 2.1781 25.4643 2.54453 25.2579L17.0757 17.052L2.54453 25.2579C2.1784 25.4647 1.82959 25.5719 1.51481 25.5898V25.5898ZM0.537855 25.2688L0.534752 25.2661C0.535853 25.2669 0.537054 25.268 0.537855 25.2688ZM0.470175 25.2035L0.463867 25.1973V25.1969C0.46627 25.1992 0.468173 25.2015 0.470175 25.2035Z" fill="black"/>
<path d="M17.0752 17.0527L17.1688 16.9995L17.0752 17.0527Z" fill="url(#paint4_linear_10101_23597)"/>
<path d="M1.4233 25.5928C1.07679 25.5928 0.774036 25.4804 0.538256 25.269L0.537855 25.2694C0.537054 25.2686 0.535853 25.2675 0.534752 25.2667L0.470175 25.2041C0.468173 25.2021 0.46627 25.1998 0.463867 25.1975L0.538256 25.1236C0.774036 25.3351 1.07639 25.4474 1.4229 25.447C1.76151 25.447 2.14246 25.3397 2.54453 25.1132L17.077 16.9069L17.1701 16.9994L17.0758 17.0527L2.54453 25.2585C2.1781 25.4649 1.82959 25.5726 1.51481 25.5905C1.48388 25.592 1.45334 25.5928 1.4233 25.5928" fill="url(#paint5_linear_10101_23597)"/>
<path d="M0.463347 25.1982C0.172003 24.8919 0 24.4162 0 23.8001V23.7997C0 24.4162 0.172003 24.8915 0.463347 25.1978V25.1982" fill="black"/>
<path d="M0.463349 25.1982C0.172003 24.8919 0 24.4166 0 23.8001V23.6552C0 24.2712 0.172003 24.7469 0.463349 25.0533L0.537739 25.124L0.463349 25.1982" fill="url(#paint6_linear_10101_23597)"/>
<path d="M0.463867 25.1982L0.537685 25.124V25.1243L0.463867 25.1982" fill="url(#paint7_linear_10101_23597)"/>
<path d="M23.002 13.3115C23.0784 13.1436 23.1168 12.971 23.1168 12.7984C23.1168 12.7981 23.1168 12.7977 23.1168 12.7977C23.1168 12.9706 23.0784 13.1432 23.002 13.3115Z" fill="black"/>
<path d="M17.1693 17L17.0762 16.9075L22.068 14.0884C22.7019 13.7304 23.0579 13.2687 23.1173 12.7983C23.1173 12.9709 23.0786 13.1435 23.0016 13.3114C22.8463 13.6499 22.535 13.9698 22.068 14.2337L17.1693 17Z" fill="url(#paint8_linear_10101_23597)"/>
<path d="M23.1174 12.7969V12.7965C23.117 12.276 22.767 11.7556 22.0681 11.3607L17.1693 8.59439H17.1689L17.1693 8.59409L22.0681 11.3603C22.7678 11.7552 23.1182 12.2764 23.1174 12.7969Z" fill="#404040"/>
<path d="M23.1177 12.7959C23.0583 12.3245 22.7023 11.8631 22.0684 11.5051L17.0762 8.68635L17.1693 8.59381H17.1697L22.0684 11.3601C22.7673 11.755 23.1173 12.2754 23.1177 12.7959Z" fill="url(#paint9_linear_10101_23597)"/>
<path d="M0 1.78906C0 1.78866 0 1.78827 0 1.78787C0 1.78827 0 1.78866 0 1.78906ZM0.00430503 1.62737C0.00430503 1.62658 0.00430503 1.62578 0.00430503 1.62498C0.00430503 1.62578 0.00430503 1.62658 0.00430503 1.62737ZM0.00460445 1.62269C0.00460445 1.6211 0.00460445 1.61961 0.00460445 1.61802C0.00460445 1.61961 0.00460445 1.6211 0.00460445 1.62269ZM0.00460445 1.61683C0.0625731 0.594637 0.621836 0.00418872 1.41297 0.000706139C1.06997 0.00269619 0.771213 0.114636 0.537336 0.324089V0.323691L0.534532 0.326476C0.509903 0.348565 0.486475 0.371949 0.463348 0.396028C0.200537 0.672347 0.0347402 1.08628 0.00460445 1.61683Z" fill="#404040"/>
<path d="M0 1.93945V1.79408C0 1.79209 0 1.7905 0 1.78861C0 1.78821 0 1.78781 0 1.78741C0 1.73259 0.00150171 1.67896 0.00430505 1.62692C0.00430505 1.62612 0.00430505 1.62533 0.00430505 1.62453C0.00430505 1.62383 0.00430412 1.62304 0.00460448 1.62224C0.00460448 1.62065 0.00460448 1.61916 0.00460448 1.61756C0.00460448 1.61717 0.00460448 1.61677 0.00460448 1.61637C0.0347403 1.08582 0.200538 0.67189 0.46335 0.395571L0.536538 0.468607C0.200538 0.769901 0 1.27239 0 1.93945V1.93945ZM0.534535 0.326019L0.537338 0.323234C0.536537 0.324428 0.535336 0.325223 0.534535 0.326019Z" fill="url(#paint10_linear_10101_23597)"/>
<path d="M17.0766 8.68652L2.54453 0.480254C2.14165 0.253289 1.7604 0.145627 1.4209 0.145627C1.07479 0.145627 0.772834 0.257567 0.537054 0.468612L0.463867 0.395576C0.486995 0.371497 0.510422 0.348113 0.535051 0.326024C0.535852 0.325228 0.537054 0.324433 0.537855 0.323637C0.771732 0.114184 1.07049 0.0022437 1.41349 0.000253649C1.41429 0.000253649 1.4154 0.000253649 1.4166 0.000253649C1.4182 0.000253649 1.4193 0.000253649 1.4209 0.000253649C1.7604 0.000253649 2.14165 0.107914 2.54453 0.334978L17.1701 8.59369L17.1697 8.59399L17.0766 8.68652Z" fill="url(#paint11_linear_10101_23597)"/>
<defs>
<linearGradient id="paint0_linear_10101_23597" x1="11.8411" y1="1.56105" x2="-4.85756" y2="18.3631" gradientUnits="userSpaceOnUse">
<stop stop-color="#00A0FF"/>
<stop offset="0.00657445" stop-color="#00A1FF"/>
<stop offset="0.2601" stop-color="#00BEFF"/>
<stop offset="0.5122" stop-color="#00D2FF"/>
<stop offset="0.7604" stop-color="#00DFFF"/>
<stop offset="1" stop-color="#00E3FF"/>
</linearGradient>
<linearGradient id="paint1_linear_10101_23597" x1="23.8904" y1="12.7969" x2="-0.335322" y2="12.7969" gradientUnits="userSpaceOnUse">
<stop stop-color="#FFE000"/>
<stop offset="0.4087" stop-color="#FFBD00"/>
<stop offset="0.7754" stop-color="#FFA500"/>
<stop offset="1" stop-color="#FF9C00"/>
</linearGradient>
<linearGradient id="paint2_linear_10101_23597" x1="14.872" y1="15.0801" x2="-7.77266" y2="37.865" gradientUnits="userSpaceOnUse">
<stop stop-color="#FF3A44"/>
<stop offset="1" stop-color="#C31162"/>
</linearGradient>
<linearGradient id="paint3_linear_10101_23597" x1="-2.67898" y1="-6.92909" x2="7.43277" y2="3.24526" gradientUnits="userSpaceOnUse">
<stop stop-color="#32A071"/>
<stop offset="0.0685" stop-color="#2DA771"/>
<stop offset="0.4762" stop-color="#15CF74"/>
<stop offset="0.8009" stop-color="#06E775"/>
<stop offset="1" stop-color="#00F076"/>
</linearGradient>
<linearGradient id="paint4_linear_10101_23597" x1="23.8374" y1="12.797" x2="-0.201396" y2="12.797" gradientUnits="userSpaceOnUse">
<stop stop-color="#CCB300"/>
<stop offset="0.4087" stop-color="#CC9700"/>
<stop offset="0.7754" stop-color="#CC8400"/>
<stop offset="1" stop-color="#CC7D00"/>
</linearGradient>
<linearGradient id="paint5_linear_10101_23597" x1="14.8724" y1="15.0801" x2="-7.7722" y2="37.865" gradientUnits="userSpaceOnUse">
<stop stop-color="#CC2E36"/>
<stop offset="1" stop-color="#9C0E4E"/>
</linearGradient>
<linearGradient id="paint6_linear_10101_23597" x1="11.8412" y1="1.56207" x2="-4.85748" y2="18.3642" gradientUnits="userSpaceOnUse">
<stop stop-color="#008DE0"/>
<stop offset="0.00657445" stop-color="#008DE0"/>
<stop offset="0.2601" stop-color="#00A7E0"/>
<stop offset="0.5122" stop-color="#00B8E0"/>
<stop offset="0.7604" stop-color="#00C4E0"/>
<stop offset="1" stop-color="#00C7E0"/>
</linearGradient>
<linearGradient id="paint7_linear_10101_23597" x1="14.762" y1="15.0806" x2="-7.88341" y2="37.6913" gradientUnits="userSpaceOnUse">
<stop stop-color="#E0333C"/>
<stop offset="1" stop-color="#AB0F56"/>
</linearGradient>
<linearGradient id="paint8_linear_10101_23597" x1="23.8897" y1="12.7974" x2="-0.335945" y2="12.7974" gradientUnits="userSpaceOnUse">
<stop stop-color="#E0C500"/>
<stop offset="0.4087" stop-color="#E0A600"/>
<stop offset="0.7754" stop-color="#E09100"/>
<stop offset="1" stop-color="#E08900"/>
</linearGradient>
<linearGradient id="paint9_linear_10101_23597" x1="23.8901" y1="12.7969" x2="-0.335534" y2="12.7969" gradientUnits="userSpaceOnUse">
<stop stop-color="#FFE840"/>
<stop offset="0.4087" stop-color="#FFCE40"/>
<stop offset="0.7754" stop-color="#FFBC40"/>
<stop offset="1" stop-color="#FFB540"/>
</linearGradient>
<linearGradient id="paint10_linear_10101_23597" x1="11.8412" y1="1.56154" x2="-4.85752" y2="18.3637" gradientUnits="userSpaceOnUse">
<stop stop-color="#40B8FF"/>
<stop offset="0.00657445" stop-color="#40B9FF"/>
<stop offset="0.2601" stop-color="#40CEFF"/>
<stop offset="0.5122" stop-color="#40DDFF"/>
<stop offset="0.7604" stop-color="#40E7FF"/>
<stop offset="1" stop-color="#40EAFF"/>
</linearGradient>
<linearGradient id="paint11_linear_10101_23597" x1="-2.67806" y1="-6.9295" x2="7.43369" y2="3.24486" gradientUnits="userSpaceOnUse">
<stop stop-color="#65B895"/>
<stop offset="0.0685" stop-color="#62BD95"/>
<stop offset="0.4762" stop-color="#50DB97"/>
<stop offset="0.8009" stop-color="#44ED98"/>
<stop offset="1" stop-color="#40F498"/>
</linearGradient>
</defs>
</svg>
